<svg xmlns="http://www.w3.org/2000/svg" width="512" height="512" viewBox="0 0 512 512">
  <defs>
    <linearGradient id="bg" x1="0" y1="0" x2="1" y2="1">
      <stop offset="0" stop-color="#123827"/>
      <stop offset="1" stop-color="#26704b"/>
    </linearGradient>
  </defs>
  <rect width="512" height="512" rx="112" fill="url(#bg)"/>
  <path d="M144 142c0-25 50-46 112-46s112 21 112 46-50 46-112 46-112-21-112-46Z" fill="#dff2e6"/>
  <path d="M144 142v76c0 25 50 46 112 46s112-21 112-46v-76c0 25-50 46-112 46s-112-21-112-46Z" fill="#a9d7b9"/>
  <path d="M144 218v76c0 25 50 46 112 46s112-21 112-46v-76c0 25-50 46-112 46s-112-21-112-46Z" fill="#79bc91"/>
  <path d="M144 294v76c0 25 50 46 112 46s112-21 112-46v-76c0 25-50 46-112 46s-112-21-112-46Z" fill="#4d9b6b"/>
  <path d="m323 284 20 20-71 71-40 8 8-40 71-71 12 12Z" fill="#fff"/>
</svg>
